# xmcd CD database file
#
# Track frame offsets:
#	150
#	15938
#	43538
#	62463
#	85125
#	106545
#	125515
#	152485
#	171263
#	200943
#	220655
#	255925
#	278285
#	298743
#
# Disc length: 4421 seconds
#
# Revision: 0
# Processed by: cddbd v1.5.1PL2 Copyright (c) Steve Scherf et al.
# Submitted via: CDex 1.51
#
DISCID=af11430e
DTITLE=Sunaga t experience - World Standard 01
DYEAR=1900
DGENRE=Jazz
TTITLE0=Daedelus - Girls (Feat.Abstract Pude And Busdriver)
TTITLE1=琉球アンダーグラウンド - Kuiju Nu Hana
TTITLE2=Sand Boy - Viber
TTITLE3=Jazztronik - Brisa (At Jazz Remix)
TTITLE4=Markus Enochson Feat. E-Man - Musical Prayer
TTITLE5=Toshiyuki Goto Presents Influence - New Dance
TTITLE6=Peckham Royality - The Minor Villain
TTITLE7=Su-Paka-Pooh - Aya
TTITLE8=Eico - 太陽の石 (Sunaga T Experience's Du Bossa Mix)
TTITLE9=Asa - Like A Samba
TTITLE10=Jazztronik - Livin' High (12inch Mix)
TTITLE11=Raw Deal - Eye Fly Feat. Gary Bardouille
TTITLE12=Raggae Disco Rockers - 夕ぐれ (Tiny Voice, Production Remix)
TTITLE13=Soulmate - Peaceful Morning (New Remix)
EXTD=
EXTT0=
EXTT1=
EXTT2=
EXTT3=
EXTT4=
EXTT5=
EXTT6=
EXTT7=
EXTT8=
EXTT9=
EXTT10=
EXTT11=
EXTT12=
EXTT13=
PLAYORDER=
